<svg viewBox="0 0 32 32" fill="none" xmlns="http://www.w3.org/2000/svg" >
<path d="M16.7238 0C20.1521 0.953506 23.2757 3.35634 24.5708 6.29314C26.5517 11.0607 26.0945 17.0868 23.9233 20.672C22.0948 23.6088 19.276 25.1726 16.0381 25.1344C11.0099 25.0963 6.93404 21.0916 6.89595 16.057C6.89595 11.0225 10.8576 6.86525 16.0381 6.86525C16.8762 6.86525 18.0845 6.98147 19.4558 7.55357C19.4558 7.55357 18.47 6.96964 15.938 6.57738C8.66233 5.62388 0.0773957 11.137 2.0582 23.8377C4.80086 28.7196 10.0576 32.0378 16.0381 31.9997C24.8375 31.9615 32.037 24.753 31.9989 15.9045C31.9989 7.43735 25.1041 0.228842 16.7238 0Z" fill="#553ACF"/>
<path d="M22.7044 6.75029C21.4854 4.19489 18.9713 2.17345 15.8859 1.37251C15.2002 1.1818 14.4764 1.10552 13.6765 1.06738C12.4956 1.06738 11.3529 1.21995 10.172 1.52507C7.23887 2.4023 5.18188 4.1186 3.96292 5.45351C2.40113 7.24611 1.37263 9.11498 0.76315 10.9839C0.76315 11.022 0.725057 11.0601 0.725057 11.1364C0.686965 11.289 0.534595 11.7467 0.534595 11.8611C0.496503 11.9374 0.496503 12.0518 0.45841 12.1281C0.420318 12.2806 0.382225 12.4332 0.344133 12.5857C0.344133 12.6239 0.344133 12.662 0.30604 12.7002C-0.684364 17.6203 0.960936 22.0356 1.95134 23.6756C2.19906 24.0858 2.40248 24.428 2.60635 24.742C0.358898 12.5371 6.81985 6.71214 14.1717 6.55958C18.019 6.4833 21.8664 8.04705 23.7329 11.1746C23.6186 9.45824 23.5043 8.50474 22.7044 6.75029Z" fill="#553ACF"/>
</svg>
