<svg  viewBox="0 0 88 88" fill="none" xmlns="http://www.w3.org/2000/svg">
<g clip-path="url(#clip0_2952_3520)">
<path d="M67.5712 17.3067C64.009 9.23083 55.4198 2.62167 45.991 0C69.0378 0.628833 87.9982 20.4527 87.9982 43.7378C88.0898 64.8303 73.2252 82.5348 53.504 86.944C22 79.2 18.9787 56.3567 18.964 44.1577C19.0685 58.003 30.2757 69.0158 44.1063 69.1203C53.0108 69.2248 60.7622 64.9257 65.791 56.848C71.7622 46.9902 73.018 30.4168 67.5712 17.3067V17.3067Z" fill="url(#paint0_radial_2952_3520)"/>
<path d="M62.4396 18.5624C59.0865 11.5352 52.173 5.97656 43.6883 3.77473C41.8018 3.24856 39.8108 3.03956 37.6108 2.93506C34.3658 2.93506 31.2216 3.35489 27.973 4.19273C19.9063 6.60539 14.2505 11.3244 10.8991 14.9966C6.60365 19.9264 3.77481 25.0652 2.09915 30.2059C2.09915 30.3104 1.99465 30.4149 1.99465 30.6257C1.88831 31.0437 1.47031 32.3032 1.47031 32.6186C1.36581 32.8276 1.36581 33.1429 1.26131 33.3519L0.94598 34.6096C0.94598 34.7159 0.94598 34.8204 0.84148 34.9249C-1.88285 48.4549 2.64181 60.5971 5.36615 65.1071C6.04815 66.2364 6.60731 67.1787 7.16831 68.0404C0.986313 34.4776 18.755 18.4579 38.973 18.0399C49.5531 17.8309 60.1351 22.1301 65.2666 30.7321C64.955 26.0112 64.6396 23.3896 62.4396 18.5642V18.5624Z" fill="url(#paint1_radial_2952_3520)"/>
<path d="M7.16836 68.0404C6.82186 67.5087 7.54052 68.6564 7.16836 68.0404C0.986356 34.4775 18.755 18.4579 38.973 18.0399C43.7452 17.9464 48.5174 18.7677 52.7909 20.4892C50.018 19.4247 47.0729 18.8797 44.1027 18.8814C29.8577 18.8814 18.9622 30.314 18.9622 44.1594C18.9769 56.3584 21.9964 79.2017 53.5022 86.9457C50.4717 87.624 47.3275 87.9871 44.1027 88.0017C27.9749 88.1044 14.8244 81.0424 7.16836 68.0422V68.0404Z" fill="url(#paint2_radial_2952_3520)"/>
</g>
<defs>
<radialGradient id="paint0_radial_2952_3520" cx="0" cy="0" r="1" gradientUnits="userSpaceOnUse" gradientTransform="translate(28.5994 83.9686) rotate(-69.643) scale(86.4323 651.292)">
<stop stop-color="#7760E1" stop-opacity="0.55"/>
<stop offset="0.427083" stop-color="#7760E1" stop-opacity="0.35"/>
<stop offset="1" stop-color="#7760E1" stop-opacity="0.15"/>
</radialGradient>
<radialGradient id="paint1_radial_2952_3520" cx="0" cy="0" r="1" gradientUnits="userSpaceOnUse" gradientTransform="translate(-22.3667 65.2666) rotate(-37.875) scale(117.059 145.131)">
<stop stop-color="#B0A0F8" stop-opacity="0.5"/>
<stop offset="0.569" stop-color="#7760E1" stop-opacity="0.75"/>
<stop offset="1" stop-color="#472EB7"/>
</radialGradient>
<radialGradient id="paint2_radial_2952_3520" cx="0" cy="0" r="1" gradientUnits="userSpaceOnUse" gradientTransform="translate(44.7324 88.0011) rotate(-103.016) scale(74.8913 149.873)">
<stop stop-color="#7760E1" stop-opacity="0.6"/>
<stop offset="0.469" stop-color="#553ACF" stop-opacity="0.7"/>
<stop offset="0.999" stop-color="#472EB7" stop-opacity="0.85"/>
</radialGradient>
<clipPath id="clip0_2952_3520">
<rect width="88" height="88" fill="white"/>
</clipPath>
</defs>
</svg>
